<?xml version="1.0" encoding="UTF-8" standalone="no"?>
<!-- Created with Inkscape (http://www.inkscape.org/) -->

<svg
   width="32.500534mm"
   height="32.463558mm"
   viewBox="0 0 32.500534 32.463558"
   version="1.1"
   id="svg1"
   xml:space="preserve"
   inkscape:version="1.4 (e7c3feb100, 2024-10-09)"
   sodipodi:docname="icon.svg"
   xmlns:inkscape="http://www.inkscape.org/namespaces/inkscape"
   xmlns:sodipodi="http://sodipodi.sourceforge.net/DTD/sodipodi-0.dtd"
   xmlns="http://www.w3.org/2000/svg"
   xmlns:svg="http://www.w3.org/2000/svg"><sodipodi:namedview
     id="namedview1"
     pagecolor="#505050"
     bordercolor="#ffffff"
     borderopacity="1"
     inkscape:showpageshadow="0"
     inkscape:pageopacity="0"
     inkscape:pagecheckerboard="1"
     inkscape:deskcolor="#505050"
     inkscape:document-units="mm"
     inkscape:zoom="3.0966049"
     inkscape:cx="82.509718"
     inkscape:cy="47.794279"
     inkscape:window-width="1876"
     inkscape:window-height="991"
     inkscape:window-x="0"
     inkscape:window-y="0"
     inkscape:window-maximized="1"
     inkscape:current-layer="layer1" /><defs
     id="defs1" /><g
     inkscape:label="Layer 1"
     inkscape:groupmode="layer"
     id="layer1"
     transform="translate(-107.01254,-138.29307)"><g
       id="g16"
       transform="translate(-42.171311,1.5708511)"><path
         style="fill:#282828;fill-opacity:1"
         d="m 163.22484,169.05265 c -3.31171,-0.41044 -6.78674,-2.13961 -9.2791,-4.61727 -6.30454,-6.26733 -6.35543,-16.50628 -0.11356,-22.84738 7.91322,-8.03902 21.44905,-5.79437 26.27283,4.35683 1.16572,2.45316 1.57938,4.28954 1.57938,7.01146 0,2.72192 -0.41366,4.55831 -1.57938,7.01146 -3.02605,6.36805 -9.72237,9.972 -16.88017,9.0849 z m 5.97797,-5.07027 c 1.23817,-0.51883 1.28035,-1.12847 0.20452,-2.9563 l -0.77864,-1.32291 -3.05384,-0.0205 -3.05383,-0.0205 -0.79322,1.40551 c -1.24167,2.20011 -1.05996,2.67678 1.2415,3.25673 1.40926,0.35512 5.04591,0.15553 6.23351,-0.34212 z m 4.60632,-2.95772 c 2.10629,-2.19824 3.61921,-6.16714 2.6557,-6.96678 -0.25934,-0.21523 -1.03425,-0.30523 -2.18986,-0.25433 l -1.78848,0.0788 -0.85371,1.67352 c -0.46954,0.92043 -1.11875,1.95564 -1.44269,2.30045 -0.70667,0.75222 -0.61073,1.32733 0.51775,3.10364 1.02739,1.61718 1.60229,1.62918 3.10129,0.0647 z m -13.6389,-0.39545 c 0.87527,-1.44187 0.93469,-2.14508 0.23479,-2.77849 -0.29127,-0.26359 -0.88643,-1.23454 -1.32259,-2.15767 l -0.79301,-1.67843 h -1.68773 c -2.18791,0 -2.51489,0.33014 -2.05118,2.07101 0.65027,2.44129 3.29836,5.9695 4.36281,5.81283 0.30125,-0.0444 0.8493,-0.59778 1.25691,-1.26925 z m -1.26848,-9.65729 c 0.26571,-0.58209 0.89841,-1.67266 1.40601,-2.42349 l 0.92292,-1.36516 -0.83817,-1.48514 c -1.08005,-1.91375 -1.54922,-2.17276 -2.53799,-1.40112 -1.24683,0.97303 -1.89752,1.81897 -2.87209,3.73389 -0.873,1.71535 -1.20619,3.49969 -0.74047,3.9654 0.1026,0.1026 1.08432,0.15221 2.18162,0.11025 l 1.99507,-0.0763 z m 17.75982,-0.26459 c -0.0196,-1.64829 -1.10109,-3.92877 -2.65401,-5.59635 -1.57392,-1.69013 -2.27667,-1.56912 -3.46226,0.59621 l -0.88396,1.61444 0.83128,1.03139 c 0.45721,0.56727 1.11377,1.66147 1.45903,2.43156 l 0.62774,1.40016 2.04895,-0.0772 2.04895,-0.0773 z m -7.25424,-5.82083 c 1.07376,-1.82431 1.03203,-2.43233 -0.20452,-2.97994 -1.38156,-0.61184 -5.89448,-0.61184 -7.27604,0 -1.23069,0.54502 -1.26486,1.0496 -0.19897,2.93825 l 0.79322,1.40551 3.05383,-0.0205 3.05384,-0.0205 z"
         id="path10" /><path
         style="fill:#458588;fill-opacity:1;stroke:#458588;stroke-width:1.7261;stroke-opacity:1"
         d="m 247.39143,51.433265 c -2.19987,-4.60522 -4.58446,-8.406911 -7.3492,-11.716609 l -1.34868,-1.614521 2.36327,-4.301715 c 2.76017,-5.024178 5.56502,-8.225327 7.20704,-8.225327 2.91827,0 8.97885,6.35829 12.70072,13.324616 2.52479,4.725717 3.69196,8.880925 3.69196,13.143592 v 3.537092 l -4.18044,0.296736 c -2.29924,0.163205 -5.67437,0.296736 -7.50029,0.296736 h -3.31985 z"
         id="path11"
         transform="matrix(0.26458333,0,0,0.26458333,106.56953,137.23131)" /><path
         style="fill:#d79921;fill-opacity:1;stroke:#d79921;stroke-width:1.7261;stroke-opacity:1"
         d="m 211.28877,33.190025 c -1.21057,-1.458649 -5.54628,-10.462573 -5.54628,-11.517903 0,-1.520743 1.79742,-3.152717 4.47847,-4.066242 3.34242,-1.138877 11.85267,-1.70274 17.89974,-1.185981 6.02214,0.514629 7.93479,0.9786 10.10108,2.450321 1.41374,0.96046 1.54347,1.242894 1.53005,3.33086 -0.0124,1.928983 -0.42554,3.000759 -2.67434,6.937996 l -2.65967,4.656583 h -11.31321 c -8.83973,0 -11.4231,-0.132414 -11.81584,-0.605634 z"
         id="path12"
         transform="matrix(0.26458333,0,0,0.26458333,106.56953,137.23131)" /><path
         style="fill:#98971a;fill-opacity:1;stroke:#98971a;stroke-width:1.7261;stroke-opacity:1"
         d="m 181.53749,55.867707 c -1.51158,-0.321216 -1.81146,-0.883709 -1.8198,-3.413495 -0.0129,-3.91097 2.72264,-10.945088 6.72339,-17.288459 2.94669,-4.672116 8.38904,-9.59066 10.61201,-9.59066 1.69456,0 3.72369,2.278707 6.77103,7.603847 1.30629,2.282693 2.37507,4.239307 2.37507,4.348032 0,0.108724 -1.3362,2.224341 -2.96932,4.70137 -2.22033,3.367663 -7.26139,12.566273 -7.31167,13.341869 -0.0148,0.228367 -13.40271,0.505324 -14.38071,0.297496 z"
         id="path13"
         transform="matrix(0.26458333,0,0,0.26458333,106.56953,137.23131)" /><path
         style="fill:#cc241d;fill-opacity:1;stroke:#cc241d;stroke-width:1.7261;stroke-opacity:1"
         d="m 196.1868,92.666182 c -0.60872,-0.243282 -2.45835,-1.858121 -4.11028,-3.588531 -5.95458,-6.237465 -11.19428,-16.632627 -10.90416,-21.633017 0.12092,-2.084213 0.28859,-2.430024 1.4462,-2.982779 0.77231,-0.368778 3.60568,-0.724413 6.90752,-0.867009 l 5.5981,-0.241764 2.78604,5.658528 c 1.53232,3.11219 3.71593,6.88757 4.85246,8.389731 2.54818,3.36796 2.67425,4.99634 0.69098,8.925174 -1.33815,2.65086 -4.89274,6.869182 -5.73928,6.810947 -0.23144,-0.01592 -0.91885,-0.227998 -1.52758,-0.47128 z"
         id="path14"
         transform="matrix(0.26458333,0,0,0.26458333,106.56953,137.23131)" /><path
         style="fill:#689d6a;fill-opacity:1;stroke:#689d6a;stroke-width:1.7261;stroke-opacity:1"
         d="m 212.17095,101.81897 c -7.44877,-1.950445 -7.88815,-3.687434 -3.11287,-12.306144 l 2.40386,-4.338632 11.43105,-0.121816 11.43105,-0.121817 2.03291,3.547052 c 2.97186,5.185363 3.69738,6.979735 3.54543,8.768567 -0.3088,3.63519 -6.68834,5.51038 -18.63215,5.4767 -4.14379,-0.0117 -6.63819,-0.25948 -9.09928,-0.90391 z"
         id="path15"
         transform="matrix(0.26458333,0,0,0.26458333,106.56953,137.23131)" /><path
         style="fill:#b16286;fill-opacity:1;stroke:#b16286;stroke-width:1.7261;stroke-opacity:1"
         d="m 245.25454,92.823887 c -2.92306,-2.91675 -6.16068,-8.854015 -6.16863,-11.312263 -0.003,-0.927791 0.66566,-2.272835 2.04335,-4.110283 1.81157,-2.41612 6.99203,-11.43773 7.79674,-13.577783 0.26777,-0.712084 1.04436,-0.799221 7.1229,-0.799221 6.63457,0 6.85323,0.03086 7.94336,1.120986 1.32398,1.323984 1.42975,2.982035 0.43409,6.804652 -2.11229,8.109604 -8.56698,18.265465 -13.82049,21.745246 -2.58472,1.712047 -3.73676,1.739747 -5.35132,0.128666 z"
         id="path16"
         transform="matrix(0.26458333,0,0,0.26458333,106.56953,137.23131)" /></g></g></svg>
